# WaveFront *.obj file (generated by Autodesk ATF)

mtllib 63cce378-b4f6-4e60-859b-ea441619fe19.mtl

g Body1

v 10.000000 1.502296 10.000000
v 10.000000 10.000000 6.500000
v -0.000000 10.000000 6.500000
v -0.000000 1.502296 10.000000
v 0.000000 0.000000 10.000000
v 10.000000 0.000000 10.000000
v 0.000000 10.000000 0.000000
v 0.000000 0.000000 0.000000
v 10.000000 10.000000 0.000000
v 10.000000 0.000000 0.000000
vt -23.343273 0.000000 0.000000
vt -0.000000 0.000000 0.000000
vt -23.343273 25.400000 0.000000
vt -0.000000 25.400000 0.000000
vt -12.700000 -8.884168 0.000000
vt -12.700000 -12.700000 0.000000
vt 12.700000 -8.884168 0.000000
vt 12.700000 -12.700000 0.000000
vt 25.400000 25.400000 0.000000
vt 21.584168 25.400000 0.000000
vt 25.400000 0.000000 0.000000
vt 0.000000 16.510000 0.000000
vt 0.000000 0.000000 0.000000
vt 25.400000 16.510000 0.000000
vt 0.000000 16.510000 0.000000
vt 25.400000 0.000000 0.000000
vt 0.000000 0.000000 0.000000
vt 25.400000 0.000000 0.000000
vt 25.400000 16.510000 0.000000
vt 0.000000 0.000000 0.000000
vt 3.815832 25.400000 0.000000
vt 0.000000 25.400000 0.000000
vt 0.000000 0.000000 0.000000
vt 25.400000 0.000000 0.000000
vt 0.000000 25.400000 0.000000
vt 25.400000 25.400000 0.000000
vt 12.700000 12.700000 0.000000
vt -12.700000 12.700000 0.000000
vt 12.700000 -12.700000 0.000000
vt -12.700000 -12.700000 0.000000
vn 0.000000 0.967328 2.348590
vn 0.000000 0.967328 2.348590
vn 0.000000 0.967328 2.348590
vn 0.000000 0.967328 2.348590
vn 0.000000 0.000000 2.540000
vn 0.000000 0.000000 2.540000
vn 0.000000 0.000000 2.540000
vn 0.000000 0.000000 2.540000
vn -2.540000 0.000000 0.000000
vn -2.540000 0.000000 0.000000
vn -2.540000 0.000000 0.000000
vn -2.540000 0.000000 0.000000
vn -2.540000 0.000000 0.000000
vn 0.000000 2.540000 0.000000
vn 0.000000 2.540000 0.000000
vn 0.000000 2.540000 0.000000
vn 0.000000 2.540000 0.000000
vn 2.540000 0.000000 0.000000
vn 2.540000 0.000000 0.000000
vn 2.540000 0.000000 0.000000
vn 2.540000 0.000000 0.000000
vn 2.540000 0.000000 0.000000
vn 0.000000 -2.540000 0.000000
vn 0.000000 -2.540000 0.000000
vn 0.000000 -2.540000 0.000000
vn 0.000000 -2.540000 0.000000
vn 0.000000 0.000000 -2.540000
vn 0.000000 0.000000 -2.540000
vn 0.000000 0.000000 -2.540000
vn 0.000000 0.000000 -2.540000
usemtl Steel_-_Satin
f 1/1/1 2/2/2 4/3/3
f 4/3/3 2/2/2 3/4/4
f 4/5/5 5/6/6 1/7/7
f 1/7/7 5/6/6 6/8/8
f 5/9/9 4/10/10 8/11/11
f 8/11/11 4/10/10 3/12/12
f 8/11/11 3/12/12 7/13/13
f 3/14/14 2/15/15 7/16/16
f 7/16/16 2/15/15 9/17/17
f 9/18/18 2/19/19 10/20/20
f 10/20/20 2/19/19 1/21/21
f 10/20/20 1/21/21 6/22/22
f 8/23/23 10/24/24 5/25/25
f 5/25/25 10/24/24 6/26/26
f 7/27/27 9/28/28 8/29/29
f 8/29/29 9/28/28 10/30/30
# 10 vertices
# 30 texture params
# 30 normals
# 16 facets

# 1 groups
